Coordinates
version=1
nRows=13
nColumns=36
inDegrees=yes

Units are S.I. units (second, meters, Newtons, ...)
If the header above contains a line with 'inDegrees', this indicates whether rotational values are in degrees (yes) or radians (no).

endheader
time	pelvis_tilt	pelvis_list	pelvis_rotation	pelvis_tx	pelvis_ty	pelvis_tz	hip_flexion_r	hip_adduction_r	hip_rotation_r	knee_angle_r	knee_angle_r_beta	ankle_angle_r	subtalar_angle_r	mtp_angle_r	hip_flexion_l	hip_adduction_l	hip_rotation_l	knee_angle_l	knee_angle_l_beta	ankle_angle_l	subtalar_angle_l	mtp_angle_l	lumbar_extension	lumbar_bending	lumbar_rotation	arm_flex_r	arm_add_r	arm_rot_r	elbow_flex_r	pro_sup_r	arm_flex_l	arm_add_l	arm_rot_l	elbow_flex_l	pro_sup_l
      1.11000000	    -10.64350777	      1.52869618	     -3.45108049	     -0.74562649	      1.30103720	     -0.58200160	     20.02332604	     -1.68122702	      4.38175899	     53.40783542	      0.93214257	    -21.47212741	    -18.39003565	     -5.20179745	     17.44187412	     -2.52723756	     -5.75033662	     48.69163102	      0.84982928	    -27.99203303	    -12.56750315	     -5.20179745	     -2.54663625	      0.53856222	     -1.28755130	     64.27790838	    -36.54695534	     28.11768535	     86.10027301	    108.03447982	     65.04646358	    -25.04792722	     13.72836871	     63.60914256	    112.16029195
      1.12000000	    -10.63121444	      1.60280210	     -3.08373935	     -0.73630474	      1.30514349	     -0.58218640	     21.59506586	     -1.73488470	      4.35935517	     54.34356242	      0.94847409	    -21.92356222	    -19.48339280	     -5.31533371	     19.45993132	     -2.62681308	     -5.40851204	     50.02071989	      0.87302626	    -28.03846353	    -13.43981989	     -5.31533371	     -2.94247264	      0.39695824	     -1.85385310	     64.13241631	    -36.57177281	     27.77845434	     85.16708515	    108.15734504	     64.33082537	    -25.50176353	     12.88409870	     63.69548401	    112.11738296
      1.13000000	    -10.62027356	      1.66096493	     -2.70713315	     -0.72720232	      1.30823294	     -0.58238787	     23.02263685	     -1.83830157	      4.29092144	     54.62600253	      0.95340360	    -22.10266209	    -20.30720287	     -5.37842021	     21.39555483	     -2.67601725	     -5.01081382	     50.77527606	      0.88619575	    -28.33792187	    -14.31434089	     -5.37842021	     -3.42083525	      0.26550738	     -2.33198639	     64.02224706	    -36.64832529	     27.54652692	     84.21494961	    108.23570348	     63.83228178	    -25.83299736	     12.40500505	     63.38198385	    112.11220709
      1.14000000	    -10.46460066	      1.67614411	     -2.28218419	     -0.71839584	      1.31066225	     -0.58291419	     24.03885359	     -1.96595712	      4.28406522	     54.09066445	      0.94406019	    -21.86336076	    -20.71119495	     -5.39931578	     23.08082003	     -2.64798261	     -4.43966917	     50.90392852	      0.88844115	    -28.31786067	    -14.80186624	     -5.39931578	     -4.16663578	      0.06138805	     -2.62360387	     63.79446826	    -37.12394394	     27.34606742	     83.31513652	    108.23282898	     63.66885443	    -25.81732791	     12.36053053	     62.87545699	    112.09446424
      1.15000000	    -10.29989016	      1.71393165	     -2.00596256	     -0.71002587	      1.31230799	     -0.58351007	     24.91984152	     -2.12784762	      4.47938480	     52.85575959	      0.92250703	    -21.69196387	    -20.75903488	     -5.41151688	     24.61055547	     -2.62011579	     -4.06315104	     50.30344800	      0.87796079	    -28.17813950	    -15.04438311	     -5.41151688	     -5.04980543	     -0.13875852	     -2.71861943	     63.62356808	    -37.66890256	     27.19344781	     82.54978195	    108.22421190	     63.57917350	    -25.77421502	     12.44971798	     62.34014634	    112.07308879
      1.16000000	    -10.05369289	      1.65719192	     -1.67783458	     -0.70182248	      1.31330593	     -0.58434418	     25.56252384	     -2.40026571	      4.26676878	     51.01003465	      0.89029306	    -21.46619053	    -20.46398541	     -5.44249986	     25.92037375	     -2.61464467	     -3.55312584	     49.04059647	      0.85591988	    -27.95720208	    -15.12115019	     -5.44249986	     -6.06146389	     -0.13642763	     -2.69612567	     63.54161764	    -38.22410501	     26.94653806	     81.53224216	    108.28240580	     63.71417002	    -25.46400842	     12.83075273	     61.08723930	    112.03408540
      1.17000000	     -9.64538347	      1.67799589	     -1.50728031	     -0.69354259	      1.31373121	     -0.58506862	     25.86518707	     -2.75901143	      4.10636705	     48.63678856	      0.84887210	    -20.99096438	    -20.09348854	     -5.48110603	     26.74849052	     -2.56335786	     -3.24611469	     47.00176254	      0.82033551	    -27.43396048	    -14.81268044	     -5.48110603	     -7.37440172	     -0.15154159	     -2.58799589	     63.60603485	    -38.73533156	     26.86329646	     80.80445784	    108.37339490	     63.80279877	    -25.30718728	     13.28093228	     60.23589856	    112.03641693
      1.18000000	     -9.12716622	      1.70586382	     -1.32692095	     -0.68512106	      1.31333744	     -0.58600720	     25.84468053	     -3.16274641	      3.84462973	     45.83462669	      0.79996515	    -20.68020928	    -19.81661296	     -5.50832904	     27.25272718	     -2.45451790	     -2.96847917	     44.44667607	      0.77574084	    -26.86873425	    -14.48474226	     -5.50832904	     -8.83026946	     -0.13677288	     -2.49850723	     63.77692454	    -39.24962605	     26.82606903	     80.00664691	    108.38933113	     63.77590293	    -25.19806685	     13.66644698	     59.65731439	    112.03994075
      1.19000000	     -8.45380038	      1.73322271	     -1.26750505	     -0.67637152	      1.31219885	     -0.58676144	     25.52257803	     -3.55015513	      3.47693963	     42.72183946	      0.74563676	    -20.64684704	    -19.48428563	     -5.54175862	     27.35530929	     -2.39690417	     -2.86936266	     41.49400646	      0.72420703	    -26.31460604	    -14.07843676	     -5.54175862	    -10.45181366	     -0.11615664	     -2.33273574	     64.06621601	    -39.79097980	     26.86372380	     79.27112931	    108.35008124	     63.70544700	    -25.24040322	     14.21523651	     59.13856629	    111.94906294
      1.20000000	     -7.95367234	      1.71199477	     -1.18944504	     -0.66752813	      1.30981556	     -0.58743742	     25.36078684	     -3.86064612	      3.20664962	     39.61919202	      0.69148535	    -20.95088620	    -18.96504804	     -5.56856338	     27.54999241	     -2.39423422	     -2.78887514	     38.34143563	      0.66918429	    -25.90294201	    -13.69533392	     -5.56856338	    -11.85603187	     -0.04801895	     -2.20181278	     64.22244920	    -40.23724926	     27.15302634	     78.55980051	    108.31738614	     63.64796627	    -25.30907735	     14.77470598	     58.91713713	    111.88426672
      1.21000000	     -7.29014922	      1.64405659	     -1.22892494	     -0.65827902	      1.30673479	     -0.58794098	     25.00400079	     -4.16995260	      2.68971442	     36.47670011	      0.63663852	    -21.60800232	    -18.33890312	     -5.60678935	     27.41841020	     -2.53229827	     -2.97870990	     35.04951296	      0.61172940	    -25.72103619	    -13.29429143	     -5.60678935	    -13.40660375	      0.09368199	     -1.98595460	     64.67149015	    -40.63942068	     27.85877505	     77.74900637	    108.26303865	     63.53092540	    -25.55795587	     15.60452638	     58.67453580	    111.87231283
      1.22000000	     -6.81100453	      1.56412139	     -1.29449758	     -0.64877829	      1.30231938	     -0.58828716	     24.84459911	     -4.41479544	      2.17409795	     33.40395287	      0.58300896	    -22.48654474	    -17.67735311	     -5.64413070	     27.44348471	     -2.72343169	     -3.31439201	     31.81258459	      0.55523434	    -25.81473753	    -13.10693177	     -5.64413070	    -14.62915140	      0.20087655	     -1.74646693	     65.02945510	    -41.00715940	     28.79178938	     76.84342038	    108.10328751	     63.35925799	    -25.83844299	     16.54313365	     58.46988000	    111.89603153
      1.23000000	     -6.40752240	      1.50060958	     -1.36178018	     -0.63906203	      1.29667078	     -0.58856845	     24.76331234	     -4.64071721	      1.55754108	     30.40374380	      0.53064543	    -23.66238057	    -17.25520193	     -5.69834886	     27.52615749	     -2.90712710	     -3.77712623	     28.69260650	      0.50078045	    -26.32077127	    -13.27364667	     -5.69834886	    -15.64044301	      0.27721312	     -1.57985195	     65.50027636	    -41.31695476	     30.13040486	     75.85970574	    107.87777783	     63.18968553	    -26.27825114	     17.72464307	     58.23665491	    111.99103048
